<svg width="110" height="26" viewBox="0 0 110 26" fill="none" xmlns="http://www.w3.org/2000/svg">
<g clip-path="url(#clip0_1_13)">
<path d="M0 25.3463V7.18744H4.14968V10.2134H4.33843C4.66875 9.16641 5.23797 8.3583 6.04017 7.7891C6.85126 7.21396 7.77731 6.92493 8.81846 6.92493C9.0544 6.92493 9.31983 6.9367 9.61177 6.9603C9.91263 6.97504 10.1603 7.00458 10.358 7.04293V10.9802C10.1781 10.9183 9.88903 10.8622 9.49383 10.815C9.10749 10.759 8.73291 10.7325 8.37011 10.7325C7.58857 10.7325 6.8896 10.9006 6.26726 11.2398C5.65382 11.5701 5.16719 12.0332 4.81327 12.623C4.45935 13.2129 4.28239 13.8971 4.28239 14.6669V25.3434H0V25.3463Z" fill="#DCF10D"/>
<path d="M27.2722 16.1269C27.2722 14.5342 27.051 13.1628 26.6086 12.0126C26.1692 10.8535 25.5616 9.90085 24.7889 9.15171C24.025 8.40262 23.1432 7.85108 22.1404 7.49719C21.1465 7.13439 20.0906 6.95154 18.9729 6.95154C17.2387 6.95154 15.7286 7.34971 14.4457 8.146C13.1598 8.93348 12.1599 10.0395 11.4433 11.4581C10.7325 12.8679 10.3786 14.5077 10.3786 16.3746C10.3786 18.2739 10.7325 19.9255 11.4433 21.3294C12.1511 22.7245 13.1627 23.8039 14.4811 24.5678C15.8053 25.3228 17.3773 25.7033 19.197 25.7033C20.6068 25.7033 21.8602 25.4909 22.9574 25.0632C24.0515 24.6297 24.9511 24.0222 25.653 23.2435C26.3609 22.4561 26.8416 21.5329 27.0953 20.4771L23.0989 20.0288C22.9102 20.539 22.63 20.9696 22.2584 21.3177C21.8897 21.6627 21.4503 21.9281 20.9459 22.1081C20.4416 22.2821 19.8783 22.3676 19.256 22.3676C18.327 22.3676 17.5159 22.1729 16.8199 21.7777C16.1268 21.3766 15.587 20.8015 15.2007 20.0524C14.8261 19.321 14.6374 18.4509 14.6256 17.4393H27.2722V16.1269ZM14.6315 14.5549C14.6698 13.8441 14.8527 13.1834 15.1771 12.5789C15.5487 11.8946 16.0649 11.3431 16.7255 10.9243C17.3891 10.4995 18.1559 10.2872 19.0318 10.2872C19.8518 10.2872 20.5685 10.4701 21.1819 10.8417C21.8071 11.2133 22.2909 11.7206 22.6389 12.3665C22.9839 13.0065 23.1609 13.735 23.1697 14.5549H14.6315Z" fill="#DCF10D"/>
<path d="M34.6131 5.75703V7.18749H38.3734V10.4995H34.6131V25.3463H30.3218V10.4995H27.6379V7.18749H30.3218V5.47391C30.3218 4.2529 30.5755 3.23539 31.0798 2.42433C31.593 1.61327 32.2772 1.00571 33.1355 0.604606C33.9966 0.200553 34.9493 0 35.9963 0C36.7395 0 37.3972 0.0589863 37.9723 0.176958C38.5474 0.29788 38.9721 0.404055 39.2494 0.498433L38.397 3.80756C38.2171 3.75152 37.9871 3.69843 37.7128 3.64239C37.4355 3.58046 37.1288 3.54802 36.7897 3.54802C35.9933 3.54802 35.43 3.73973 35.0997 4.12608C34.7753 4.50654 34.6131 5.04922 34.6131 5.75703Z" fill="#DCF10D"/>
<path d="M66.8989 25.7032C65.0851 25.7032 63.5309 25.3051 62.2303 24.5088C60.9383 23.7125 59.9417 22.6124 59.24 21.2114C58.5469 19.8017 58.1989 18.1766 58.1989 16.3392C58.1989 14.4958 58.5526 12.8678 59.2634 11.4581C59.9714 10.0394 60.9737 8.93641 62.2657 8.14892C63.5663 7.35264 65.1028 6.95447 66.8754 6.95447C68.3503 6.95447 69.6537 7.22584 70.7891 7.77144C71.9309 8.30818 72.8417 9.06915 73.5206 10.0542C74.1989 11.0304 74.5851 12.1748 74.6794 13.4813H70.5886C70.4234 12.6053 70.0286 11.8769 69.4063 11.2929C68.7926 10.703 67.9669 10.4052 66.9343 10.4052C66.0583 10.4052 65.292 10.6411 64.628 11.116C63.9674 11.582 63.4514 12.2514 63.08 13.1244C62.7171 14.0004 62.5371 15.0474 62.5371 16.2684C62.5371 17.5071 62.7171 18.5689 63.08 19.4596C63.4423 20.3414 63.9497 21.0227 64.6046 21.5034C65.2651 21.9753 66.044 22.2113 66.9343 22.2113C67.5657 22.2113 68.1291 22.0933 68.6246 21.8573C69.1286 21.6125 69.5503 21.2616 69.8897 20.8044C70.2291 20.3473 70.4617 19.7928 70.5886 19.1381H74.6794C74.576 20.424 74.1989 21.5624 73.544 22.5534C72.8891 23.5384 71.9983 24.3112 70.872 24.8715C69.7451 25.426 68.4211 25.7032 66.8989 25.7032Z" fill="#DCF10D"/>
<path d="M87.8749 17.7106V7.1875H92.1543V25.3464H88.0046V22.1198H87.8154C87.4057 23.1373 86.7332 23.969 85.7954 24.6149C84.8663 25.2609 83.7189 25.5853 82.3566 25.5853C81.168 25.5853 80.1149 25.3198 79.2006 24.7919C78.2954 24.2552 77.5846 23.4794 77.0714 22.462C76.5583 21.4385 76.3017 20.1998 76.3017 18.7488V7.1875H80.5812V18.0881C80.5812 19.2384 80.8966 20.1526 81.528 20.831C82.1589 21.5093 82.9846 21.8485 84.0109 21.8485C84.6423 21.8485 85.2526 21.6952 85.8429 21.3884C86.4326 21.0817 86.9189 20.6245 87.2966 20.017C87.68 19.4006 87.8749 18.6337 87.8749 17.7106Z" fill="#DCF10D"/>
<path d="M109.036 11.989L105.134 12.4137C105.025 12.0185 104.83 11.6498 104.556 11.3018C104.287 10.9538 103.925 10.6765 103.467 10.4612C103.01 10.2489 102.45 10.1427 101.79 10.1427C100.899 10.1427 100.15 10.3344 99.5423 10.7207C98.9434 11.1071 98.6486 11.6085 98.6543 12.2219C98.6457 12.7499 98.84 13.1805 99.2326 13.5108C99.6337 13.8411 100.297 14.1125 101.217 14.3278L104.314 14.9884C106.034 15.3601 107.307 15.9469 108.145 16.7491C108.989 17.5543 109.414 18.6043 109.422 19.9049C109.414 21.0463 109.08 22.0579 108.417 22.9309C107.762 23.798 106.854 24.4763 105.686 24.963C104.521 25.4526 103.179 25.6974 101.666 25.6974C99.4417 25.6974 97.6543 25.2314 96.2977 24.3023C94.9411 23.3645 94.1331 22.0609 93.8737 20.3886L98.0469 19.9875C98.2354 20.8074 98.6366 21.4267 99.2531 21.8426C99.8663 22.2614 100.669 22.4679 101.654 22.4679C102.671 22.4679 103.485 22.2585 104.102 21.8426C104.724 21.4238 105.037 20.9077 105.037 20.2942C105.037 19.7751 104.836 19.3446 104.435 19.0054C104.04 18.6662 103.426 18.4067 102.591 18.2238L99.4949 17.575C97.752 17.2122 96.4657 16.6017 95.6286 15.7434C94.7937 14.8763 94.3777 13.7822 94.3869 12.4579C94.3777 11.3401 94.6817 10.3698 95.2983 9.54988C95.9206 8.72114 96.7846 8.08405 97.8874 7.63577C98.9994 7.17862 100.279 6.95154 101.73 6.95154C103.857 6.95154 105.532 7.40577 106.756 8.3112C107.983 9.21954 108.744 10.4435 109.036 11.989Z" fill="#DCF10D"/>
<path d="M57.252 16.3156C52.0671 16.3156 47.8643 12.1128 47.8643 6.92798C53.0492 6.92798 57.252 11.1307 57.252 16.3156Z" fill="#DCF10D"/>
<path d="M47.8643 25.7032C47.8643 20.5183 52.0671 16.3156 57.252 16.3156C57.252 21.5005 53.0492 25.7032 47.8643 25.7032Z" fill="#DCF10D"/>
<path d="M47.879 6.92798C47.879 12.1128 43.6763 16.3156 38.4914 16.3156C38.4914 11.1307 42.6942 6.92798 47.879 6.92798Z" fill="#DCF10D"/>
<path d="M38.4914 16.3156C43.6763 16.3156 47.879 20.5183 47.879 25.7032C42.6942 25.7032 38.4914 21.5005 38.4914 16.3156Z" fill="#DCF10D"/>
</g>
<defs>
<clipPath id="clip0_1_13">
<rect width="109.714" height="26" fill="white"/>
</clipPath>
</defs>
</svg>
